# File created by Blade
# Date/Time:  Tue Apr 07 20:49:15 2015
#---------------------------------------------------------
:version 1.10
:name HOM
:units
  mass 1.0
  length 1.000000
  angle deg
:documentation
     Acclaim Skeleton File
:root
   axis xyz
   order TX TY TZ RX RY RZ
   position 0.000000 0.000000 0.000000
   orientation 0 0 0
:bonedata
   begin
      id 1
      name Spine_dum
      direction 0.000000 1.000000 0.000000
      length 4.885285
      axis 0.0 0.0 0.0 xyz
   end
   begin
      id 2
      name LeftUpLeg_dum
      direction 1.000000 0.000000 0.000000
      length 2.672193
      axis 0.0 0.0 0.0 xyz
   end
   begin
      id 3
      name RightUpLeg_dum
      direction -1.000000 0.000000 0.000000
      length 2.672193
      axis 0.0 0.0 0.0 xyz
   end
   begin
      id 4
      name Spine
      direction 0.000000 1.000000 0.000000
      length 0.000000
      axis 0.0 0.0 0.0 xyz
      dof rx ry rz
   end
   begin
      id 5
      name Spine_dum1
      direction 0.000000 1.000000 0.000000
      length 16.494159
      axis 0.0 0.0 0.0 xyz
   end
   begin
      id 6
      name Spine_dum2
      direction 0.000000 1.000000 0.000000
      length 10.663448
      axis 0.0 0.0 0.0 xyz
   end
   begin
      id 7
      name Spine_dum3
      direction 0.000000 1.000000 0.000000
      length 10.663448
      axis 0.0 0.0 0.0 xyz
   end
   begin
      id 8
      name Head
      direction 0.000000 1.000000 0.000000
      length 4.527550
      axis 0.0 0.0 0.0 xyz
      dof rx ry rz
   end
   begin
      id 9
      name LeftShoulder
      direction 1.000000 0.000000 0.000000
      length 7.531907
      axis 0.0 0.0 -90.0 xyz
      dof rx ry rz
   end
   begin
      id 10
      name LeftArm
      direction 1.000000 0.000000 0.000000
      length 10.229199
      axis 0.0 0.0 -90.0 xyz
      dof rx ry rz
   end
   begin
      id 11
      name LeftForeArm
      direction 1.000000 0.000000 0.000000
      length 8.673495
      axis 0.0 0.0 -90.0 xyz
      dof ry rz rx
   end
   begin
      id 12
      name LeftHand
      direction 0.000000 0.000000 0.000000
      length 0.000000
      axis 0.0 0.0 -90.0 xyz
      dof rx ry rz
   end
   begin
      id 13
      name LeftHand_dum1
      direction 0.000000 0.000000 0.000000
      length 0.000000
      axis 0.0 0.0 -90.0 xyz
   end
   begin
      id 14
      name LeftHand_dum2
      direction 1.000000 0.000000 0.000000
      length 3.937000
      axis 0.0 0.0 -90.0 xyz
   end
   begin
      id 15
      name LeftHandThumb1
      direction 0.000000 0.000000 1.000000
      length 3.937000
      axis 0.0 0.0 -90.0 xyz
      dof rx rz ry
   end
   begin
      id 16
      name RightShoulder
      direction -1.000000 0.000000 0.000000
      length 7.531907
      axis 0.0 0.0 90.0 xyz
      dof rx ry rz
   end
   begin
      id 17
      name RightArm
      direction -1.000000 0.000000 0.000000
      length 10.229199
      axis 0.0 0.0 90.0 xyz
      dof rx ry rz
   end
   begin
      id 18
      name RightForeArm
      direction -1.000000 0.000000 0.000000
      length 8.673495
      axis 0.0 0.0 90.0 xyz
      dof ry rz rx
   end
   begin
      id 19
      name RightHand
      direction 0.000000 0.000000 0.000000
      length 0.000000
      axis 0.0 0.0 90.0 xyz
      dof rx ry rz
   end
   begin
      id 20
      name RightHand_dum1
      direction 0.000000 0.000000 0.000000
      length 0.000000
      axis 0.0 0.0 90.0 xyz
   end
   begin
      id 21
      name RightHand_dum2
      direction -1.000000 0.000000 0.000000
      length 3.937000
      axis 0.0 0.0 90.0 xyz
   end
   begin
      id 22
      name RightHandThumb1
      direction 0.000000 0.000000 1.000000
      length 3.937000
      axis 0.0 0.0 90.0 xyz
      dof rx rz ry
   end
   begin
      id 23
      name LeftUpLeg
      direction 0.000000 -1.000000 0.000000
      length 16.263388
      axis 0.0 0.0 0.0 xyz
      dof rx ry rz
   end
   begin
      id 24
      name LeftLeg
      direction 0.000000 -1.000000 0.000000
      length 14.328163
      axis 0.0 0.0 0.0 xyz
      dof rx ry rz
   end
   begin
      id 25
      name LeftFoot
      direction 0.000000 -0.258819 0.965926
      length 5.031290
      axis 15.0 0.0 0.0 xyz
      dof rx ry rz
   end
   begin
      id 26
      name LeftToeBase
      direction 0.000000 0.000000 1.000000
      length 2.952750
      axis 0.0 0.0 0.0 xyz
      dof rx ry rz
   end
   begin
      id 27
      name RightUpLeg
      direction 0.000000 -1.000000 0.000000
      length 16.263388
      axis 0.0 0.0 0.0 xyz
      dof rx ry rz
   end
   begin
      id 28
      name RightLeg
      direction 0.000000 -1.000000 0.000000
      length 14.328163
      axis 0.0 0.0 0.0 xyz
      dof rx ry rz
   end
   begin
      id 29
      name RightFoot
      direction 0.000000 -0.258819 0.965926
      length 5.031290
      axis 15.0 0.0 0.0 xyz
      dof rx ry rz
   end
   begin
      id 30
      name RightToeBase
      direction 0.000000 0.000000 1.000000
      length 2.952750
      axis 0.0 0.0 0.0 xyz
      dof rx ry rz
   end
:hierarchy
   begin
      root Spine_dum LeftUpLeg_dum RightUpLeg_dum
      Spine_dum Spine
      LeftUpLeg_dum LeftUpLeg
      RightUpLeg_dum RightUpLeg
      Spine Spine_dum1 Spine_dum2 Spine_dum3
      Spine_dum1 Head
      Spine_dum2 LeftShoulder
      Spine_dum3 RightShoulder
      LeftShoulder LeftArm
      LeftArm LeftForeArm
      LeftForeArm LeftHand
      LeftHand LeftHand_dum1 LeftHand_dum2
      LeftHand_dum1 LeftHandThumb1
      RightShoulder RightArm
      RightArm RightForeArm
      RightForeArm RightHand
      RightHand RightHand_dum1 RightHand_dum2
      RightHand_dum1 RightHandThumb1
      LeftUpLeg LeftLeg
      LeftLeg LeftFoot
      LeftFoot LeftToeBase
      RightUpLeg RightLeg
      RightLeg RightFoot
      RightFoot RightToeBase
   end

# File created by Blade
# Date/Time:  Tue Apr 07 20:49:23 2015
# Frame Rate: 120.000 fps
#------------------------------------------------------
:FULLY-SPECIFIED
:DEGREES
128
root 0.527756 32.902923 -3.361504 10.379008 46.297003 0.096243
Spine -7.616472 -2.631136 2.490573
Head 6.674886 2.781556 -6.375139
LeftShoulder -21.803974 43.118252 5.021890
LeftArm 56.387448 -12.875467 -89.890281
LeftForeArm 19.106139 -0.000000 46.751274
LeftHand 2.226976 -0.000000 9.077264
LeftHandThumb1 -26.253704 0.000000 33.147579
RightShoulder -4.545604 -5.723540 -22.345121
RightArm 7.993427 3.022254 73.101848
RightForeArm -4.280971 -0.000000 9.803606
RightHand 8.056480 -0.000000 -2.094166
RightHandThumb1 -24.326973 -0.000000 -32.862282
LeftUpLeg -18.994147 -17.846446 10.129331
LeftLeg 3.747816 -0.000000 -0.000000
LeftFoot -1.361606 1.376786 -22.930623
LeftToeBase -12.473766 -0.000000 0.000000
RightUpLeg -5.038779 -2.957599 1.441487
RightLeg 3.233995 -0.000000 -0.000000
RightFoot -8.807184 -13.201812 6.647763
RightToeBase -9.023878 -0.000000 0.000000
129
root 0.454301 32.905178 -3.399180 10.497284 47.380914 0.175382
Spine -7.532613 -2.630768 2.450573
Head 6.702719 2.900370 -6.341431
LeftShoulder -21.808881 43.205248 4.909742
LeftArm 55.847595 -11.611851 -90.122899
LeftForeArm 18.765294 -0.000000 46.491256
LeftHand 2.271699 0.000000 9.068399
LeftHandThumb1 -26.253704 0.000000 33.147579
RightShoulder -4.460149 -5.805064 -22.200273
RightArm 8.201207 2.564804 73.893364
RightForeArm -4.132283 -0.000000 9.663569
RightHand 8.049344 -0.000000 -1.947931
RightHandThumb1 -24.326973 -0.000000 -32.862282
LeftUpLeg -19.527877 -17.439272 9.923916
LeftLeg 4.306843 -0.000000 -0.000000
LeftFoot -2.338377 3.341600 -22.224956
LeftToeBase -11.706946 -0.000000 0.000000
RightUpLeg -5.126697 -3.333472 1.551383
RightLeg 3.172112 -0.000000 -0.000000
RightFoot -8.886573 -13.620505 6.883003
RightToeBase -8.901109 -0.000000 0.000000
130
root 0.379409 32.905237 -3.435268 10.636492 48.492394 0.229009
Spine -7.483717 -2.614001 2.416917
Head 6.726154 3.007430 -6.238917
LeftShoulder -21.774252 43.176904 4.859065
LeftArm 55.232039 -10.397943 -90.322826
LeftForeArm 18.560671 -0.000000 46.217321
LeftHand 2.299927 -0.000000 9.004570
LeftHandThumb1 -26.253704 0.000000 33.147579
RightShoulder -4.430397 -5.694925 -22.071285
RightArm 8.175619 1.881668 74.618695
RightForeArm -3.768238 -0.000000 9.635473
RightHand 7.737797 -0.000000 -2.077468
RightHandThumb1 -24.326973 -0.000000 -32.862282
LeftUpLeg -20.119600 -16.919272 9.727245
LeftLeg 4.947991 -0.000000 -0.000000
LeftFoot -3.261584 5.258451 -21.654337
LeftToeBase -10.621094 -0.000000 0.000000
RightUpLeg -5.280013 -3.766068 1.710903
RightLeg 3.161299 -0.000000 -0.000000
RightFoot -8.977038 -14.100521 6.968204
RightToeBase -8.763216 -0.000000 0.000000
131
root 0.306563 32.904748 -3.469969 10.823748 49.591261 0.316835
Spine -7.468086 -2.531972 2.322429
Head 6.792272 3.028197 -6.059412
LeftShoulder -21.763893 43.277054 4.777155
LeftArm 54.821124 -9.224773 -90.517578
LeftForeArm 18.485854 -0.000000 45.872796
LeftHand 2.405239 0.000000 9.085006
LeftHandThumb1 -26.253704 0.000000 33.147579
RightShoulder -4.492010 -5.618832 -21.862707
RightArm 8.196834 0.852132 75.173865
RightForeArm -2.959639 -0.000000 9.608764
RightHand 7.482594 -0.000000 -2.200035
RightHandThumb1 -24.326973 -0.000000 -32.862282
LeftUpLeg -20.719632 -16.312887 9.480218
LeftLeg 5.622701 -0.000000 -0.000000
LeftFoot -4.101671 7.069301 -21.258323
LeftToeBase -9.770919 -0.000000 0.000000
RightUpLeg -5.448873 -4.139000 1.842428
RightLeg 3.139090 -0.000000 -0.000000
RightFoot -9.066807 -14.618744 7.071089
RightToeBase -8.693703 -0.000000 0.000000
